# xmcd
#
# Track frame offsets:
#	150
#	16543
#	28573
#	45095
#	58460
#	73734
#	91991
#	106100
#	122120
#	136134
#	153252
#	169352
#	182413
#	195991
#	210056
#	222047
#	235601
#	247852
#	263479
#	276955
#
# Disc length: 3892 seconds
#
# Revision: 1
# Processed by: cddbd v1.5.2PL0 Copyright (c) Steve Scherf et al.
# Submitted via: audiograbber 1.83.01
#
DISCID=f70f3214
DTITLE=Tom  Astor - All The Best CD 2
DYEAR=2012
DGENRE=Country
TTITLE0=Irgendwie Wird´s Schon Geh´n  (2003, Original 1996)
TTITLE1=Hallo Guten Morgen Deutschland  (2003, 0riginal 1990)
TTITLE2=Ich Bin Kein Mann Für´s Paradies  (1993)
TTITLE3=100.000 Tonnen  (1994)
TTITLE4=Das Ist Meine Freiheit (Rhinestone Cowboy)  (1994)
TTITLE5=Verlorener Sohn  (1996)
TTITLE6=Hungrige Herzen  (2003, Original 19949
TTITLE7=Ja, Ich Bin Einfach, So Wie Du, Unterwegs  (1991)
TTITLE8=Sie Ist Wie Ein Neues Leben (Just Another Rhinestone - New Version)  (1
TTITLE8=994)
TTITLE9=Du Bist Der Schöpfung Heisseste Idee (All You Ever Do Is Bring Me Down)
TTITLE9=(1996)
TTITLE10=Und Ich Seh Die Trucks Vorüberzieh´n  (1992)
TTITLE11=Endlos Weit - Nur Freiheit (Shenandoah)  (1996)
TTITLE12=Ich Bin Wie Ich Bin  (1994)
TTITLE13=Ich Mag Deine Fehler  (1993)
TTITLE14=Danke, Johnny Cash  (1991)
TTITLE15=Nur Wer Die Hölle Kennt  (1993)
TTITLE16=Wir Sind Stärker Als Die Stürme  (2001)
TTITLE17=Warum Whiskey Pur  (1991)
TTITLE18=Was Uns Nicht Umhaut (1994)
TTITLE19=Auf Wiedersehn, Good Bye
EXTD=
EXTT0=
EXTT1=
EXTT2=
EXTT3=
EXTT4=
EXTT5=
EXTT6=
EXTT7=
EXTT8=
EXTT9=
EXTT10=
EXTT11=
EXTT12=
EXTT13=
EXTT14=
EXTT15=
EXTT16=
EXTT17=
EXTT18=
EXTT19=
PLAYORDER=
